<svg xmlns="http://www.w3.org/2000/svg" width="450" height="400" viewBox="0 0 450 400">
  <defs>
    <linearGradient id="api-and-backend-illustration-a" x1="58.103%" x2="60.6%" y1="142.968%" y2="3.791%">
      <stop offset="0%" stop-color="#FFF"/>
      <stop offset="100%" stop-color="#EFF6FF"/>
    </linearGradient>
    <linearGradient id="api-and-backend-illustration-b" x1="23.943%" x2="114.16%" y1="50%" y2="50%">
      <stop offset="0%" stop-color="#8BBBFF" stop-opacity="0"/>
      <stop offset="100%" stop-color="#8BBBFF"/>
    </linearGradient>
    <linearGradient id="api-and-backend-illustration-c" x1="5.286%" y1="50%" y2="50%">
      <stop offset="0%" stop-color="#8BBBFF" stop-opacity="0"/>
      <stop offset="100%" stop-color="#8BBBFF"/>
    </linearGradient>
    <radialGradient id="api-and-backend-illustration-d" cx="44.388%" cy="13.385%" r="187.712%" fx="44.388%" fy="13.385%" gradientTransform="scale(.1943 1) rotate(6.928 1.364 15.339)">
      <stop offset="0%" stop-color="#66A5FF"/>
      <stop offset="100%" stop-color="#CCE1FF" stop-opacity="0"/>
    </radialGradient>
    <linearGradient id="api-and-backend-illustration-e" x1="100%" x2="0%" y1="100%" y2="0%">
      <stop offset="0%" stop-color="#E6F1FF"/>
      <stop offset="100%" stop-color="#FFF"/>
    </linearGradient>
    <linearGradient id="api-and-backend-illustration-f" x1="77.009%" x2="79.099%" y1="31.007%" y2="96.55%">
      <stop offset="3.99%" stop-color="#0E36BA"/>
      <stop offset="97.22%" stop-color="#0549D5" stop-opacity="0"/>
    </linearGradient>
    <linearGradient id="api-and-backend-illustration-g" x1="0%" y1="29.937%" y2="72.182%">
      <stop offset="0%" stop-color="#8BBBFF"/>
      <stop offset="100%" stop-color="#0260F5"/>
    </linearGradient>
  </defs>
  <g fill="none" fill-rule="evenodd">
    <path fill="url(#api-and-backend-illustration-a)" d="M431.435141,193.433148 C430.960759,193.433148 430.486376,193.433148 430.486376,192.95779 C430.486376,192.482433 429.537611,192.482433 428.588846,192.482433 C426.691316,192.007076 424.793786,192.007076 422.896256,192.007076 C421.947491,192.007076 420.998726,192.007076 420.049961,191.531718 L419.575579,191.531718 C414.357372,191.056361 408.664782,190.105646 403.446574,188.679574 C402.023427,188.204216 400.600279,186.778144 400.125897,185.352072 C400.600279,185.352072 400.125897,185.352072 400.125897,185.352072 L396.330837,184.401357 C398.228367,170.615992 397.279602,156.35527 394.433307,142.569905 C391.11263,128.78454 385.42004,115.474533 377.82992,103.590598 L380.676215,100.738453 L380.676215,100.263096 C380.676215,98.8370239 381.150597,96.9355942 382.099362,95.9848794 C386.368805,92.1820202 390.638247,89.3298757 395.382072,86.4777313 C396.330837,86.0023739 397.279602,85.5270165 398.228367,85.0516591 C400.125897,84.1009443 401.549044,83.1502294 403.446574,82.1995146 C403.920957,81.7241572 404.395339,81.7241572 404.869722,81.2487998 C405.344104,80.7734424 404.869722,80.7734424 404.869722,80.298085 C409.139164,76.9705832 410.087929,71.2662943 406.767252,66.9880776 C405.344104,65.086648 402.497809,63.6605758 400.125897,63.6605758 C397.753984,63.6605758 395.382072,64.6112906 393.484542,66.0373628 L393.010159,66.5127202 C392.535777,66.9880776 392.061394,67.463435 391.587012,67.463435 C390.163865,68.8895072 388.740717,70.3155795 387.791952,71.7416517 C387.31757,72.6923665 386.368805,73.1677239 385.894422,73.6430813 C382.573745,77.4459406 378.304302,81.2487998 374.03486,84.1009443 C373.086095,84.5763017 372.13733,85.0516591 371.188565,85.0516591 C370.714182,85.0516591 369.765417,85.0516591 369.291035,84.5763017 L368.816652,84.5763017 L365.021593,86.9530887 C361.226533,83.1502294 356.95709,79.3473702 353.16203,75.5445109 C335.609878,61.7591461 313.788284,53.2027128 291.492307,50.8259258 L291.017924,47.0230665 L291.017924,47.4984239 C289.594777,46.5477091 289.120394,45.1216369 288.646012,43.6955647 C288.646012,38.4666332 288.646012,33.2377017 289.594777,27.5334129 L289.594777,27.0580554 C289.594777,26.1073406 290.069159,25.1566258 290.069159,24.205911 C290.543542,22.3044814 290.543542,20.4030518 291.017924,18.5016221 L291.017924,15.6494777 C291.492307,10.8959036 287.697247,6.14232955 282.953422,5.66697215 C280.107127,5.19161474 277.260832,6.61768696 274.888919,8.99447399 C272.99139,10.8959036 272.042625,13.2726907 272.042625,15.6494777 L272.042625,18.0262647 C272.042625,19.9276943 272.517007,21.829124 272.99139,23.7305536 C273.465772,24.6812684 273.465772,25.6319832 273.465772,26.582698 L273.465772,27.0580554 C274.414537,32.2869869 274.414537,37.5159184 274.414537,43.2202073 C273.940154,44.6462795 273.465772,46.0723517 272.042625,47.0230665 L272.042625,47.9737813 L271.568242,51.7766406 C266.350035,52.251998 261.131827,53.2027128 255.439237,54.1534276 C233.14326,58.9070017 212.744813,70.7909369 197.090191,87.4284461 L194.243896,85.5270165 L193.769514,85.5270165 C193.295131,85.5270165 192.820749,86.0023739 191.871984,86.0023739 C190.923219,86.0023739 189.974454,85.5270165 189.025689,85.0516591 C184.756246,81.7241572 180.486804,77.921298 177.166127,74.1184387 C176.691744,73.1677239 175.742979,72.6923665 175.268597,72.2170091 C173.845449,70.7909369 172.896684,69.3648646 171.473537,67.9387924 C170.999154,67.463435 170.524772,67.463435 170.050389,66.9880776 C169.576007,66.5127202 169.576007,66.5127202 169.576007,66.5127202 C167.678477,65.086648 165.306564,64.1359332 162.934652,64.1359332 C160.088357,64.1359332 157.716444,65.086648 156.293297,67.463435 C153.447002,71.7416517 154.395767,77.4459406 158.190827,80.7734424 C158.665209,80.7734424 158.665209,81.2487998 158.665209,81.2487998 C158.665209,81.2487998 159.613974,82.1995146 160.088357,82.1995146 C161.511504,83.1502294 163.409034,84.1009443 165.306564,85.0516591 C166.255329,85.5270165 167.204094,86.0023739 168.152859,86.4777313 C172.896684,89.3298757 177.640509,92.1820202 181.435569,95.9848794 C182.384334,96.9355942 183.333099,98.8370239 182.858716,100.263096 L182.858716,99.7877387 L185.705011,102.639883 C185.230629,103.590598 184.756246,104.065955 184.281864,105.01667 C169.576007,128.309183 163.409034,155.879913 167.678477,182.975285 L163.883417,183.926 C163.883417,184.401357 163.409034,184.401357 163.409034,184.401357 C162.934652,185.827429 161.511504,186.778144 160.088357,187.728859 C154.870149,189.154931 149.651942,190.105646 143.959352,190.581003 C143.010587,190.581003 142.061822,190.581003 141.113057,191.056361 C139.215527,191.056361 137.317997,191.531718 135.420467,191.531718 C134.946085,191.531718 134.471702,192.007076 133.522937,192.007076 C133.048555,192.007076 133.048555,192.007076 132.574172,192.482433 C127.355965,193.433148 124.035288,198.186722 124.984053,203.415653 C124.984053,203.415653 124.984053,203.415653 124.984053,203.415653 C125.932818,207.69387 130.20226,210.546014 134.471702,210.070657 C135.420467,210.070657 135.89485,210.070657 136.843615,209.5953 C137.317997,209.5953 137.317997,209.5953 137.317997,209.119942 C137.317997,208.644585 138.741145,209.119942 139.215527,209.119942 C141.113057,208.644585 143.010587,207.69387 144.433735,207.218513 C145.3825,206.743155 146.331265,206.267798 147.28003,206.267798 L147.754412,206.267798 C152.97262,204.366368 157.716444,202.940296 163.409034,201.989581 L163.883417,201.989581 C165.306564,201.989581 166.729712,202.464939 167.678477,203.415653 C168.152859,203.415653 168.152859,203.891011 168.152859,203.891011 L172.422302,203.415653 C179.538039,225.282094 192.820749,244.771748 211.321666,259.03247 C215.591108,262.359972 219.386168,265.212116 224.129993,267.588903 L221.758081,270.916405 C221.758081,271.391762 222.232463,271.391762 222.232463,271.391762 C223.181228,272.817835 223.181228,274.719264 222.706846,276.145337 C220.809316,280.898911 217.963021,285.652485 215.116726,289.930701 L215.116726,290.406059 C214.642343,291.356774 214.167961,291.832131 213.219196,292.782846 C212.270431,293.733561 211.321666,295.63499 209.898518,297.53642 C209.424136,298.011777 209.424136,298.487135 208.949753,298.962492 C208.949753,298.962492 208.949753,299.437849 208.475371,299.437849 C206.103458,304.191424 208.000988,309.895712 212.270431,312.272499 C213.219196,312.747857 214.642343,313.223214 215.591108,313.223214 C219.386168,313.223214 222.706846,310.846427 224.604376,307.518925 C224.604376,307.518925 224.604376,307.043568 225.078758,307.043568 C225.078758,306.568211 225.553141,306.092853 226.027523,305.617496 C226.501905,303.716066 227.45067,302.289994 227.925053,300.388564 L228.873818,297.53642 C230.296965,292.307488 232.668878,287.553914 235.04079,282.80034 C235.989555,281.374268 237.412703,280.423553 238.83585,279.948196 C239.310233,279.948196 239.310233,279.948196 239.310233,279.472838 L241.207763,275.669979 C254.490472,280.898911 268.247565,283.275698 282.479039,283.275698 C291.017924,283.275698 299.556809,282.324983 308.095694,279.948196 C313.313901,278.997481 318.532109,277.096051 323.275933,275.669979 L325.173463,278.997481 C325.647846,278.997481 325.647846,278.997481 325.647846,279.472838 C327.070993,279.948196 328.494141,280.898911 329.442906,282.324983 C331.814818,287.078557 334.186731,291.832131 335.609878,297.061062 L335.609878,297.53642 L336.558643,300.388564 C337.033026,302.289994 337.507408,304.191424 338.456173,305.617496 C338.930556,306.092853 338.930556,306.568211 339.404938,307.043568 C339.404938,307.043568 339.404938,307.518925 339.879321,307.518925 C341.776851,310.846427 345.097528,313.223214 348.892588,313.223214 C350.315735,313.223214 351.2645,312.747857 352.687648,312.272499 C354.585178,311.321785 356.482708,309.420355 356.95709,307.043568 C357.431473,304.666781 357.431473,302.289994 356.482708,299.913207 C356.482708,299.437849 356.008325,299.437849 356.008325,299.437849 C356.008325,298.962492 355.533943,298.487135 355.05956,298.011777 C354.110795,296.110348 353.16203,294.684275 351.738883,293.258203 C351.2645,292.307488 350.790118,291.832131 349.841353,290.881416 L349.841353,289.930701 C346.520675,285.652485 344.148763,280.898911 342.251233,276.145337 C341.776851,274.719264 341.776851,272.817835 342.725616,271.391762 C342.725616,270.916405 343.199998,270.916405 343.199998,270.916405 L341.776851,267.113546 C365.970358,252.377466 384.471275,229.560311 393.010159,202.464939 L396.805219,202.940296 C397.279602,202.940296 397.279602,202.464939 397.279602,202.464939 C398.228367,201.514224 399.651514,201.038866 401.074662,201.038866 L401.549044,201.038866 C406.767252,201.989581 411.985459,203.415653 416.729284,205.317083 L417.203666,205.317083 C418.152431,205.79244 419.101196,206.267798 420.049961,206.267798 C421.947491,207.218513 423.370639,208.169227 425.268169,208.644585 C425.742551,208.644585 426.216934,209.119942 427.165699,209.119942 C427.640081,209.119942 427.640081,209.119942 428.114464,209.5953 C429.063229,210.070657 429.537611,210.070657 430.486376,210.070657 C434.755819,210.070657 438.550879,207.218513 439.974026,203.415653 C439.499643,198.186722 435.704584,194.383863 431.435141,193.433148 Z M294.338602,178.697068 L281.530274,184.876714 L268.721947,178.697068 L265.40127,164.911703 L274.414537,153.503126 L288.646012,153.503126 L297.659279,164.911703 L294.338602,178.697068 Z M371.662947,147.798837 C374.03486,157.781342 374.509242,167.763848 373.560477,177.746353 L328.494141,164.911703 C324.224698,163.960989 321.852786,159.682772 322.801551,155.404555 C323.275933,153.978483 323.750316,153.027768 324.699081,152.077053 L360.277768,119.75275 C365.495975,128.309183 369.291035,137.816331 371.662947,147.798837 Z M346.046293,102.164526 L307.146929,129.735255 C303.826251,131.636685 299.082426,131.161328 296.710514,127.833826 C295.761749,126.883111 295.287367,125.932396 295.287367,124.506324 L292.441072,76.4952257 C313.313901,78.8720128 331.814818,87.9038035 346.046293,102.164526 Z M260.183062,77.921298 L269.670712,76.0198683 L267.2988,123.555609 C267.2988,127.833826 263.50374,131.161328 259.234297,131.161328 C257.81115,131.161328 256.862385,130.68597 255.439237,130.210613 L216.065491,102.164526 C228.399435,90.2805905 243.579675,81.7241572 260.183062,77.921298 Z M202.308398,119.75275 L237.412703,151.126339 C240.73338,153.978483 241.207763,158.732057 238.361468,162.059559 C237.412703,163.485631 236.463938,163.960989 234.566408,164.436346 L188.551306,177.746353 C187.128159,157.781342 191.871984,137.340974 202.308398,119.75275 Z M194.243896,200.088151 L241.207763,192.007076 C245.002823,192.007076 248.797883,194.383863 249.272265,198.186722 C249.746647,199.612794 249.746647,201.514224 248.797883,202.940296 L230.771348,246.673177 C214.167961,235.739957 200.885251,219.102448 194.243896,200.088151 Z M301.928721,259.03247 C295.287367,260.458542 288.646012,261.409257 281.530274,261.409257 C271.568242,261.409257 261.131827,259.507827 251.644177,256.655683 L274.888919,214.348874 C277.260832,211.496729 281.055892,210.546014 284.376569,212.447444 C285.799717,213.398159 286.748482,214.348874 288.171629,215.774946 L310.941989,257.13104 C308.095694,257.606398 305.249399,258.081755 301.928721,259.03247 Z M359.803385,217.676376 C352.687648,229.084953 342.725616,239.067459 331.340436,246.19782 L312.839519,201.514224 C311.890754,197.711364 313.788284,193.908505 317.108961,192.482433 C318.532109,192.007076 319.955256,191.531718 321.378403,191.531718 L368.816652,199.612794 C366.44474,206.267798 363.598445,212.447444 359.803385,217.676376 Z"/>
    <rect width="59" height="7" x="51" y="40" fill="#F1F7FF" fill-rule="nonzero" rx="1"/>
    <rect width="17" height="7" x="24" y="40" fill="#D9E7FB" fill-rule="nonzero" rx="1"/>
    <rect width="59" height="7" x="67" y="56" fill="#F1F7FF" fill-rule="nonzero" rx="1"/>
    <rect width="40" height="7" x="51" y="72" fill="#D9E7FB" fill-rule="nonzero" rx="1"/>
    <rect width="47" height="7" x="16.762" y="251" fill="#F1F7FF" fill-rule="nonzero" rx="1"/>
    <rect width="9" height="7" x="66.762" y="251" fill="#D9E7FB" fill-rule="nonzero" rx="1"/>
    <rect width="65" height="7" x="44.762" y="269" fill="#F1F7FF" fill-rule="nonzero" rx="1"/>
    <rect width="20" height="7" x="114.762" y="269" fill="#D9E7FB" fill-rule="nonzero" rx="1"/>
    <rect width="95" height="7" x="26.762" y="286" fill="#F1F7FF" fill-rule="nonzero" rx="1"/>
    <rect width="38" height="7" x="6.762" y="302" fill="#D9E7FB" fill-rule="nonzero" rx="1"/>
    <rect width="60" height="7" x="32.762" y="318" fill="#F1F7FF" fill-rule="nonzero" rx="1"/>
    <path stroke="url(#api-and-backend-illustration-b)" stroke-linecap="round" stroke-linejoin="round" stroke-width="3" d="M131.147193,372.153589 L167.56038,372.153589 C177.503271,372.153589 185.563578,364.093282 185.563578,354.150391 L185.563578,354.150391 C185.563578,344.207499 193.623884,336.147193 203.566776,336.147193 L218.846411,336.147193" opacity=".7" transform="scale(1 -1) rotate(90 529.147 0)"/>
    <path stroke="url(#api-and-backend-illustration-c)" stroke-linecap="round" stroke-linejoin="round" stroke-width="3" d="M391.271977,223.752437 L457.828023,223.852437" opacity=".7" transform="rotate(-90 424.55 223.802)"/>
    <path stroke="url(#api-and-backend-illustration-c)" stroke-dasharray="0 10" stroke-linecap="round" stroke-linejoin="round" stroke-width="3" d="M109.393175,90.606825 L171.706825,90.706825" opacity=".7" transform="rotate(-90 140.55 90.657)"/>
    <path stroke="url(#api-and-backend-illustration-c)" stroke-linecap="round" stroke-linejoin="round" stroke-width="3" d="M219.456724,122.456724 L283.299899,122.700101" opacity=".7" transform="rotate(-90 251.378 122.578)"/>
    <path stroke="url(#api-and-backend-illustration-c)" stroke-dasharray="0 10" stroke-linecap="round" stroke-linejoin="round" stroke-width="3" d="M310.978516,59.5 L368,60" opacity=".7" transform="rotate(-90 339 60)"/>
    <path stroke="url(#api-and-backend-illustration-d)" stroke-width="3" d="M321.255089,74.1882118 C253.511136,27.3575556 162.791274,31.7214514 99.8550894,84.8382118" transform="rotate(-33 210.555 63.33)"/>
    <circle cx="192" cy="299" r="8" fill="url(#api-and-backend-illustration-e)" fill-rule="nonzero" transform="matrix(0 -1 -1 0 491 491)"/>
    <circle cx="192" cy="299" r="4" fill="#120078" fill-rule="nonzero" transform="matrix(0 -1 -1 0 491 491)"/>
    <circle cx="424.5" cy="180.5" r="4.5" fill="url(#api-and-backend-illustration-e)" fill-rule="nonzero" transform="matrix(0 -1 -1 0 605 605)"/>
    <circle cx="424.5" cy="180.5" r="2.25" fill="#120078" fill-rule="nonzero" transform="matrix(0 -1 -1 0 605 605)"/>
    <circle cx="140.5" cy="51.5" r="4.5" fill="url(#api-and-backend-illustration-e)" fill-rule="nonzero" transform="matrix(0 -1 -1 0 192 192)"/>
    <circle cx="140.5" cy="51.5" r="2.25" fill="#120078" fill-rule="nonzero" transform="matrix(0 -1 -1 0 192 192)"/>
    <circle cx="251" cy="77" r="8" fill="url(#api-and-backend-illustration-e)" fill-rule="nonzero" transform="matrix(0 -1 -1 0 328 328)"/>
    <circle cx="251" cy="77" r="4" fill="#120078" fill-rule="nonzero" transform="matrix(0 -1 -1 0 328 328)"/>
    <circle cx="339" cy="20" r="8" fill="url(#api-and-backend-illustration-e)" fill-rule="nonzero" transform="matrix(0 -1 -1 0 359 359)"/>
    <circle cx="339" cy="20" r="4" fill="#120078" fill-rule="nonzero" transform="matrix(0 -1 -1 0 359 359)"/>
    <circle cx="424.5" cy="180.5" r="4.5" fill="url(#api-and-backend-illustration-e)" fill-rule="nonzero" transform="matrix(0 -1 -1 0 605 605)"/>
    <circle cx="424.5" cy="180.5" r="2.25" fill="#120078" fill-rule="nonzero" transform="matrix(0 -1 -1 0 605 605)"/>
    <circle cx="184.762" cy="54.786" r="8" fill="#0069FF" fill-opacity=".6" fill-rule="nonzero"/>
    <circle cx="372" cy="66" r="4" fill="#0069FF" fill-opacity=".2" fill-rule="nonzero"/>
    <circle cx="354" cy="39" r="8" fill="#0069FF" fill-opacity=".1" fill-rule="nonzero"/>
    <polygon fill="url(#api-and-backend-illustration-f)" fill-opacity=".06" fill-rule="nonzero" points="37 131.559 171 143.003 171 298 37 298"/>
    <path fill="url(#api-and-backend-illustration-g)" fill-opacity=".1" d="M99.1714855,140.026558 L169.558463,180.702226 C171.951203,182.084684 171.923751,184.341811 169.498068,185.743613 L117.887459,215.568451 C115.461666,216.970253 111.555866,216.98608 109.163565,215.603622 L38.7764779,174.927954 C36.3842865,173.545496 36.4115192,171.288369 38.8373121,169.886567 L90.4475913,140.061729 C92.8733843,138.659927 96.7792941,138.64421 99.1714855,140.026558 Z"/>
    <path fill="url(#api-and-backend-illustration-g)" fill-opacity=".3" d="M99.1714855,120.026558 L169.558463,160.702226 C171.951203,162.084684 171.923751,164.341811 169.498068,165.743613 L117.887459,195.568451 C115.461666,196.970253 111.555866,196.98608 109.163565,195.603622 L38.7764779,154.927954 C36.3842865,153.545496 36.4115192,151.288369 38.8373121,149.886567 L90.4475913,120.061729 C92.8733843,118.659927 96.7792941,118.64421 99.1714855,120.026558 Z"/>
    <path fill="url(#api-and-backend-illustration-g)" d="M99.1714855,100.026558 L169.558463,140.702226 C171.951203,142.084684 171.923751,144.341811 169.498068,145.743613 L117.887459,175.568451 C115.461666,176.970253 111.555866,176.98608 109.163565,175.603622 L38.7764779,134.927954 C36.3842865,133.545496 36.4115192,131.288369 38.8373121,129.886567 L90.4475913,100.061729 C92.8733843,98.6599271 96.7792941,98.6442099 99.1714855,100.026558 Z"/>
    <path fill="#FFF" d="M121.334748 122.817067C121.719481 122.596365 121.76116 122.261965 121.428366 122.070788L92.2996031 105.346325C91.9666809 105.155212 91.3842595 105.179188 90.9998473 105.39989L88.9102351 106.599687C88.5258229 106.820388 88.4840153 107.154788 88.8169374 107.345965L117.945252 124.070429C118.278046 124.261542 118.860916 124.237565 119.245008 124.016864L121.334748 122.817067zM101.683237 132.151188C102.067713 131.930487 102.109521 131.596087 101.776598 131.40491L81.2323145 119.609212C80.8993924 119.418035 80.3170351 119.442075 79.9326229 119.662777L77.8430107 120.86251C77.4585985 121.083275 77.4167908 121.417675 77.749713 121.608788L98.2939328 133.404551C98.626855 133.595664 99.2092763 133.571687 99.5936885 133.350986L101.683237 132.151188z"/>
    <path fill="#003FA3" d="M82.9838107,131.723304 C83.368287,131.502603 83.4100947,131.168203 83.0771725,130.977026 L72.8105771,125.082365 C72.477655,124.891188 71.8952336,124.915229 71.5108214,125.13593 L69.4212092,126.335664 C69.0367969,126.556429 68.9949893,126.890829 69.3279115,127.081942 L79.5945069,132.976667 C79.927429,133.16778 80.5098504,133.143803 80.8942626,132.923101 L82.9838107,131.723304 Z"/>
    <path fill="#FFF" d="M91.8635725 147.130319C92.2479847 146.909617 92.2897924 146.575217 91.9568702 146.384104L63.8334779 130.236678C63.5005557 130.045501 62.9181344 130.069542 62.5337221 130.290243L60.4441099 131.489977C60.0596977 131.710742 60.0178901 132.045142 60.3508122 132.236255L88.4742046 148.383681C88.8071267 148.574858 89.3895481 148.550817 89.7739603 148.330116L91.8635725 147.130319zM110.220715 137.053107C110.605191 136.832342 110.646998 136.498006 110.314076 136.306829L107.626653 134.763832C107.293731 134.572655 106.71131 134.596696 106.326898 134.817397L104.237285 136.01713C103.852873 136.237896 103.811066 136.572232 104.143988 136.763409L106.831411 138.306406C107.164333 138.497583 107.746754 138.473606 108.131166 138.252841L110.220715 137.053107z"/>
    <path fill="#CCE1FF" d="M127.133954,136.455281 C127.518046,136.234516 127.559725,135.90018 127.226931,135.709003 L98.7136763,119.337687 C98.3807542,119.14651 97.7983328,119.170551 97.4139206,119.391252 L95.3243084,120.591049 C94.9398962,120.811751 94.8980885,121.146151 95.2310107,121.337264 L123.744458,137.70858 C124.077252,137.899757 124.659481,137.875716 125.044214,137.655014 L127.133954,136.455281 Z"/>
    <path fill="#003FA3" d="M143.069588,145.605049 C143.454321,145.384348 143.496,145.049948 143.163206,144.858771 L133.44229,139.277658 C133.109496,139.086545 132.527267,139.110522 132.142534,139.331223 L130.053435,140.53102 C129.668702,140.751722 129.627023,141.086122 129.959817,141.277299 L139.680092,146.858412 C140.012885,147.049525 140.595756,147.025548 140.979847,146.804783 L143.069588,145.605049 Z"/>
    <path fill="#CCE1FF" d="M133.236458,129.650649 C133.621191,129.429948 133.66287,129.095548 133.330076,128.904435 L127.2,125.384945 C126.867206,125.193832 126.284977,125.217809 125.900244,125.438574 L123.811145,126.638307 C123.426412,126.859009 123.384733,127.193409 123.717527,127.384586 L129.846962,130.904012 C130.180397,131.095188 130.762626,131.071148 131.146718,130.850446 L133.236458,129.650649 Z"/>
    <polygon fill="url(#api-and-backend-illustration-f)" fill-opacity=".06" fill-rule="nonzero" points="286 122.286 407.096 132.581 407.096 272 286 272"/>
    <path fill="url(#api-and-backend-illustration-g)" fill-opacity=".1" d="M342.184602,129.903286 L405.793574,166.490947 C407.955902,167.734464 407.931093,169.764745 405.738995,171.025662 L359.098296,197.853029 C356.906098,199.113946 353.376412,199.128182 351.214481,197.884665 L287.60541,161.297004 C285.443577,160.053486 285.468188,158.023206 287.660386,156.762288 L334.300786,129.934922 C336.492984,128.674005 340.02277,128.659867 342.184602,129.903286 Z"/>
    <path fill="url(#api-and-backend-illustration-g)" fill-opacity=".3" d="M342.184602,111.913336 L405.793574,148.500997 C407.955902,149.744515 407.931093,151.774795 405.738995,153.035713 L359.098296,179.863079 C356.906098,181.123996 353.376412,181.138233 351.214481,179.894716 L287.60541,143.307054 C285.443577,142.063537 285.468188,140.033256 287.660386,138.772339 L334.300786,111.944972 C336.492984,110.684055 340.02277,110.669917 342.184602,111.913336 Z"/>
    <path fill="url(#api-and-backend-illustration-g)" d="M342.184602,93.923386 L405.793574,130.511048 C407.955902,131.754565 407.931093,133.784845 405.738995,135.045763 L359.098296,161.873129 C356.906098,163.134047 353.376412,163.148283 351.214481,161.904766 L287.60541,125.317104 C285.443577,124.073587 285.468188,122.043306 287.660386,120.782389 L334.300786,93.9550226 C336.492984,92.6941053 340.02277,92.6799677 342.184602,93.923386 Z"/>
    <path fill="#FFF" d="M362.213624 114.423392C362.561309 114.224871 362.598974 113.924079 362.298227 113.752116L335.974456 98.7085031C335.673593 98.5365974 335.147257 98.5581644 334.799862 98.7566848L332.911472 99.8358993C332.564077 100.03442 332.526295 100.335212 332.827158 100.507175L359.150524 115.550788C359.451271 115.722694 359.978013 115.701127 360.325118 115.502606L362.213624 114.423392zM344.454481 122.819411C344.801933 122.62089 344.839715 122.320098 344.538852 122.148135L325.972906 111.537934C325.672043 111.365971 325.145765 111.387595 324.79837 111.586116L322.90998 112.665273C322.562585 112.863851 322.524804 113.164643 322.825667 113.336548L341.391554 123.946807C341.692417 124.118713 342.218753 124.097146 342.566148 123.898625L344.454481 122.819411z"/>
    <path fill="#003FA3" d="M327.55574,122.43453 C327.903193,122.23601 327.940974,121.935218 327.640111,121.763255 L318.362151,116.461022 C318.061288,116.289059 317.534952,116.310683 317.187557,116.509204 L315.299167,117.588361 C314.951772,117.786939 314.91399,118.087731 315.214853,118.259636 L324.492814,123.561926 C324.793677,123.733832 325.320013,123.712265 325.667408,123.513745 L327.55574,122.43453 Z"/>
    <path fill="#FFF" d="M335.580414 136.293101C335.927808 136.09458 335.96559 135.793789 335.664727 135.621883L310.249513 121.097314C309.94865 120.925351 309.422314 120.946975 309.074919 121.145495L307.186529 122.224653C306.839134 122.42323 306.801353 122.724022 307.102215 122.895928L332.517429 137.420497C332.818292 137.59246 333.344629 137.570836 333.692023 137.372315L335.580414 136.293101zM352.169831 127.228674C352.517284 127.030097 352.555065 126.729362 352.254202 126.557399L349.825568 125.169477C349.524705 124.997514 348.998369 125.019138 348.650974 125.217659L346.762584 126.296816C346.415189 126.495394 346.377407 126.796128 346.67827 126.968091L349.106904 128.356013C349.407767 128.527976 349.934104 128.506409 350.281499 128.307831L352.169831 127.228674z"/>
    <path fill="#CCE1FF" d="M367.454388,126.690931 C367.801493,126.492354 367.839159,126.191619 367.538412,126.019656 L341.770878,111.293698 C341.470015,111.121735 340.943679,111.14336 340.596284,111.34188 L338.707894,112.421095 C338.360499,112.619615 338.322717,112.920407 338.62358,113.092313 L364.391288,127.81827 C364.692035,127.990233 365.218198,127.968609 365.565882,127.770088 L367.454388,126.690931 Z"/>
    <path fill="#003FA3" d="M381.855479,134.921125 C382.203164,134.722604 382.24083,134.421812 381.940083,134.249849 L373.155255,129.229652 C372.854508,129.057746 372.328345,129.079314 371.980661,129.277834 L370.092734,130.357048 C369.745049,130.555569 369.707384,130.856361 370.008131,131.028324 L378.792379,136.048521 C379.093126,136.220427 379.619868,136.19886 379.966973,136.000282 L381.855479,134.921125 Z"/>
    <path fill="#CCE1FF" d="M372.969244,120.570182 C373.316928,120.371662 373.354594,120.07087 373.053847,119.898964 L367.514074,116.733192 C367.213327,116.561286 366.687164,116.582853 366.33948,116.781431 L364.451553,117.860588 C364.103869,118.059108 364.066203,118.3599 364.36695,118.531863 L369.906143,121.697578 C370.20747,121.869541 370.733632,121.847917 371.080737,121.649396 L372.969244,120.570182 Z"/>
    <polygon fill="url(#api-and-backend-illustration-f)" fill-opacity=".06" fill-rule="nonzero" points="128 231.559 405 247.003 405 398 128 398"/>
    <path fill="url(#api-and-backend-illustration-g)" fill-opacity=".1" d="M402.677017,306.05711 C405.484721,304.434927 405.79051,301.977425 403.358094,300.572603 L256.852833,215.94804 C254.420417,214.543538 250.166093,214.720037 247.35732,216.341685 L130.323434,283.942796 C127.515089,285.564978 127.20962,288.022481 129.641716,289.427303 L276.147511,374.051652 C278.579928,375.456581 282.834251,375.280083 285.643024,373.6579 L402.677017,306.05711 Z"/>
    <path fill="url(#api-and-backend-illustration-g)" fill-opacity=".3" d="M402.677017,278.05711 C405.484721,276.434927 405.79051,273.977425 403.358094,272.572603 L256.852833,187.94804 C254.420417,186.543538 250.166093,186.720037 247.35732,188.341685 L130.323434,255.942796 C127.515089,257.564978 127.20962,260.022481 129.641716,261.427303 L276.147511,346.051652 C278.579928,347.456581 282.834251,347.280083 285.643024,345.6579 L402.677017,278.05711 Z"/>
    <path fill="url(#api-and-backend-illustration-g)" d="M402.289978,251.024917 C405.099226,249.401977 405.405184,246.943327 402.971429,245.537848 L256.385608,160.87377 C253.951854,159.468613 249.695191,159.645194 246.884873,161.267599 L129.786633,228.900276 C126.976743,230.523216 126.671106,232.981867 129.104539,234.387345 L275.690896,319.05121 C278.12465,320.456795 282.381313,320.280214 285.19163,318.657273 L402.289978,251.024917 Z"/>
    <path fill="#107" d="M290.981788,181.222476 L255.532666,160.791203 C253.30524,159.508131 249.409907,159.669845 246.839308,161.150804 L129.785907,228.614858 C126.976898,230.233805 126.671346,232.68643 129.104037,234.088447 L164.180145,254.304598 L290.981788,181.222476 Z"/>
    <path fill="#D5E6FF" d="M403.106822,250.827851 C406.045488,249.133318 406.364815,246.56603 403.820991,245.098578 L256.226341,159.969072 C253.736457,158.53352 249.38024,158.713503 246.505222,160.372147 L235.853094,166.516351 C235.488458,166.726511 235.448542,167.045522 235.764632,167.227661 L391.334893,256.957506 C391.650983,257.139644 392.203332,257.116796 392.569047,256.906421 L403.106822,250.827851 Z"/>
    <path fill="#FFF" d="M251.830965 191.988067C254.486512 190.481016 254.77605 188.196543 252.474865 186.891282L237.491228 178.387435C235.191122 177.081112 231.166748 177.24573 228.510553 178.752781 225.854249 180.260894 225.565359 182.544305 227.86568 183.849566L242.849858 192.354474C245.149963 193.659736 249.174337 193.49618 251.830965 191.988067zM231.587136 199.029823C233.02917 198.204861 233.185206 196.955602 231.936917 196.240205L219.445897 189.091608C218.197391 188.377285 216.013427 188.466441 214.571826 189.291403 213.130225 190.116365 212.973431 191.366699 214.221828 192.081021L226.713065 199.230693C227.961571 199.945016 230.145535 199.854785 231.587136 199.029823zM291.175697 213.58944C293.174841 212.468697 293.391903 210.770185 291.660832 209.799155L278.14545 202.218585C276.414378 201.247555 273.38636 201.369856 271.387217 202.4906 269.388073 203.612397 269.171011 205.310909 270.902082 206.281939L284.417464 213.861455C286.148535 214.832907 289.176554 214.710922 291.175697 213.58944zM264.862175 218.419245C266.283398 217.54366 266.438227 216.217116 265.20707 215.45883L260.006952 212.253328C258.775794 211.49527 256.624206 211.589885 255.20405 212.465356 253.782827 213.340827 253.627998 214.667828 254.859155 215.426114L260.059273 218.631844C261.290431 219.39013 263.44202 219.294831 264.862175 218.419245zM262.073691 228.639277C263.515946 227.814225 263.671983 226.56424 262.42369 225.849717L249.933176 218.700732C248.6838 217.986209 246.500371 218.0759 245.0592 218.900953 243.616945 219.726005 243.459825 220.97599 244.709201 221.690513L257.199714 228.839498C258.448007 229.554021 260.63252 229.464329 262.073691 228.639277zM247.327964 233.266468C248.726396 232.442328 248.878856 231.193725 247.667583 230.479992L238.667151 225.17721C237.454826 224.463477 235.33615 224.553069 233.937718 225.37721 232.538235 226.20135 232.385774 227.449953 233.598099 228.163686L242.598531 233.466468C243.809804 234.180201 245.928481 234.090609 247.327964 233.266468zM318.890929 230.244804C320.890073 229.123733 321.107135 227.425204 319.376063 226.45427L305.860682 218.873729C304.12961 217.902901 301.100506 218.024781 299.102448 219.145958 297.103305 220.267029 296.886243 221.965558 298.617314 222.936492L312.132696 230.517032C313.863767 231.487967 316.891786 231.36598 318.890929 230.244804zM292.577825 235.074423C293.999068 234.198843 294.152831 232.872307 292.922725 232.114027L287.72147 228.908432C286.491364 228.150151 284.339746 228.245335 282.918504 229.120915 281.498329 229.996494 281.343498 231.32303 282.573604 232.081311L287.77486 235.287019C289.004966 236.0453 291.157651 235.950002 292.577825 235.074423zM289.78894 245.29445C291.231174 244.469397 291.387209 243.219412 290.138934 242.50489L277.647516 235.355904C276.399241 234.641382 274.215843 234.731073 272.773609 235.556125 271.332458 236.381178 271.17534 237.631162 272.423615 238.345685L284.915033 245.494671C286.163308 246.209193 288.347789 246.119502 289.78894 245.29445zM275.043216 248.996353C276.441623 248.172213 276.594081 246.92361 275.382829 246.209877L266.3815 240.907095C265.170248 240.193362 263.051607 240.282955 261.652148 241.107095 260.253741 241.931235 260.101283 243.179839 261.312535 243.893571L270.313864 249.196353C271.525117 249.910086 273.643757 249.820494 275.043216 248.996353zM346.606552 245.974689C348.604579 244.853618 348.822723 243.155089 347.091679 242.184155L333.576504 234.603614C331.844374 233.632786 328.816402 233.754666 326.817289 234.875843 324.819262 235.996914 324.601118 237.695443 326.332163 238.666377L339.848422 246.246917C341.579467 247.217852 344.607439 247.095865 346.606552 245.974689zM320.293382 250.804308C321.713599 249.928728 321.868434 248.602193 320.638291 247.843912L315.43688 244.638317C314.206738 243.880036 312.053988 243.97522 310.633771 244.8508 309.213554 245.726379 309.058718 247.052915 310.288861 247.811196L315.490272 251.016904C316.720415 251.775185 318.873165 251.679887 320.293382 250.804308zM317.504514 261.024335C318.945692 260.199282 319.102813 258.949297 317.854515 258.234775L305.362862 251.085789C304.114563 250.371267 301.930041 250.460958 300.488863 251.28601 299.047685 252.111063 298.890564 253.361047 300.138863 254.07557L312.630516 261.224556C313.878814 261.939078 316.062253 261.849387 317.504514 261.024335zM302.758042 265.651526C304.157563 264.827385 304.308977 263.578782 303.09767 262.865049L294.096993 257.562268C292.885687 256.848535 290.765901 256.938127 289.367432 257.762267 287.968962 258.586408 287.816497 259.835011 289.027803 260.548744L298.028481 265.851525C299.239787 266.565258 301.359572 266.475666 302.758042 265.651526zM220.501023 205.507038C221.942622 204.682108 222.099417 203.431824 220.85102 202.717529L208.359798 195.568139C207.111293 194.853844 204.927331 194.944071 203.485732 195.769 202.044133 196.59393 201.887338 197.844214 203.135735 198.558509L215.626957 205.706825C216.875462 206.422194 219.059424 206.331967 220.501023 205.507038zM210.338771 211.058559C211.780371 210.233597 211.937165 208.984338 210.688769 208.268941L198.197546 201.120343C196.949041 200.406021 194.765079 200.495177 193.32348 201.320139 191.881881 202.145101 191.725087 203.395434 192.973483 204.109757L205.464706 211.259429C206.71321 211.973751 208.897172 211.883521 210.338771 211.058559zM199.252679 217.535831C200.694278 216.71078 200.851072 215.460799 199.602676 214.746278L187.111453 207.596882C185.862949 206.882576 183.678987 206.972804 182.237388 207.797747 180.795788 208.62269 180.638994 209.872993 181.88739 210.587299L194.378613 217.736051C195.627117 218.450572 197.811079 218.360881 199.252679 217.535831zM256.935057 167.779048C258.103174 168.447979 257.956518 169.6181 256.606877 170.389708 255.258261 171.162334 253.213287 171.245696 252.045171 170.577782 250.877054 169.908851 251.02371 168.73873 252.372325 167.966105 253.721967 167.194496 255.765915 167.110117 256.935057 167.779048zM266.173006 172.405485C267.342073 173.074416 267.194401 174.244536 265.845872 175.016145 264.496318 175.78877 262.452502 175.872133 261.283435 175.204218 260.115394 174.535287 260.26204 173.365167 261.611594 172.592542 262.960123 171.820933 265.004965 171.736554 266.173006 172.405485z"/>
    <path fill="#FFF" d="M266.173006 172.405485C267.342073 173.074416 267.194401 174.244536 265.845872 175.016145 264.496318 175.78877 262.452502 175.872133 261.283435 175.204218 260.115394 174.535287 260.26204 173.365167 261.611594 172.592542 262.960123 171.820933 265.004965 171.736554 266.173006 172.405485zM275.411114 177.957209C276.580118 178.62614 276.43348 179.796261 275.083997 180.567869 273.734515 181.340494 271.690808 181.423857 270.521804 180.755942 269.353825 180.087012 269.500463 178.916891 270.849945 178.144266 272.199428 177.372657 274.243135 177.288278 275.411114 177.957209z"/>
  </g>
</svg>