<svg xmlns="http://www.w3.org/2000/svg" width="450" height="400" viewBox="0 0 450 400">
  <defs>
    <linearGradient id="email-support-a" x1="58.103%" x2="60.6%" y1="142.968%" y2="3.791%">
      <stop offset="0%" stop-color="#FFF"/>
      <stop offset="100%" stop-color="#EFF6FF"/>
    </linearGradient>
    <linearGradient id="email-support-b" x1="30.228%" x2="69.772%" y1="29.937%" y2="72.182%">
      <stop offset="0%" stop-color="#0643CF"/>
      <stop offset="100%" stop-color="#0E1593"/>
    </linearGradient>
    <linearGradient id="email-support-c" x1="100%" x2="0%" y1="100%" y2="0%">
      <stop offset="0%" stop-color="#E6F1FF"/>
      <stop offset="100%" stop-color="#FFF"/>
    </linearGradient>
    <linearGradient id="email-support-d" x1="77.009%" x2="79.099%" y1="33.606%" y2="90.181%">
      <stop offset="3.99%" stop-color="#0E36BA"/>
      <stop offset="97.22%" stop-color="#0549D5" stop-opacity="0"/>
    </linearGradient>
    <linearGradient id="email-support-e" x1="0%" y1="43.312%" y2="57.394%">
      <stop offset="0%" stop-color="#8BBBFF"/>
      <stop offset="100%" stop-color="#0260F5"/>
    </linearGradient>
    <linearGradient id="email-support-f" x1="59.836%" x2="60.597%" y1="31.007%" y2="96.55%">
      <stop offset="3.99%" stop-color="#0E36BA"/>
      <stop offset="97.22%" stop-color="#0549D5" stop-opacity="0"/>
    </linearGradient>
    <linearGradient id="email-support-g" x1="0%" y1="43.312%" y2="57.394%">
      <stop offset="0%" stop-color="#8BBBFF"/>
      <stop offset="100%" stop-color="#0260F5"/>
    </linearGradient>
    <linearGradient id="email-support-h" x1="50%" x2="28.211%" y1="38.863%" y2="106.383%">
      <stop offset="0%" stop-color="#8BBBFF"/>
      <stop offset="100%" stop-color="#0260F5"/>
    </linearGradient>
    <linearGradient id="email-support-i" x1="28.411%" x2="80.976%" y1="48.241%" y2="106.885%">
      <stop offset="0%" stop-color="#0740CB"/>
      <stop offset="100%" stop-color="#0D1D9D"/>
    </linearGradient>
    <linearGradient id="email-support-j" x1="77.009%" x2="79.099%" y1="31.848%" y2="94.489%">
      <stop offset="3.99%" stop-color="#0E36BA"/>
      <stop offset="97.22%" stop-color="#0549D5" stop-opacity="0"/>
    </linearGradient>
    <linearGradient id="email-support-k" x1="0%" y1="43.3%" y2="57.408%">
      <stop offset="0%" stop-color="#8BBBFF"/>
      <stop offset="100%" stop-color="#0260F5"/>
    </linearGradient>
    <linearGradient id="email-support-l" x1="23.943%" x2="114.16%" y1="50%" y2="50%">
      <stop offset="0%" stop-color="#8BBBFF" stop-opacity="0"/>
      <stop offset="100%" stop-color="#8BBBFF"/>
    </linearGradient>
    <linearGradient id="email-support-m" x1="49.282%" x2="45.175%" y1="0%" y2="100%">
      <stop offset="0%" stop-color="#8BBBFF" stop-opacity="0"/>
      <stop offset="100%" stop-color="#8BBBFF"/>
    </linearGradient>
    <linearGradient id="email-support-n" x1="12.93%" x2="82.942%" y1="0%" y2="0%">
      <stop offset="0%" stop-color="#8BBBFF" stop-opacity="0"/>
      <stop offset="100%" stop-color="#8BBBFF"/>
    </linearGradient>
    <linearGradient id="email-support-o" x1="0%" y1="0%" y2="0%">
      <stop offset="0%" stop-color="#8BBBFF" stop-opacity="0"/>
      <stop offset="100%" stop-color="#8BBBFF"/>
    </linearGradient>
  </defs>
  <g fill="none" fill-rule="evenodd">
    <path fill="url(#email-support-a)" d="M427.693359,182.34668 C427.693359,154.338685 420.106654,128.118208 407.047135,105.426138 L407.047135,84.2771159 C407.047135,64.3567357 390.836624,48.146224 370.916243,48.146224 L349.767221,48.146224 C327.075151,35.0867058 300.854674,27.5 272.84668,27.5 C244.838685,27.5 218.618208,35.0867058 195.926138,48.146224 L174.777116,48.146224 C154.856736,48.146224 138.646224,64.3567357 138.646224,84.2771159 L138.646224,105.426138 C125.586706,128.118208 118,154.338685 118,182.34668 C118,210.354674 125.586706,236.575151 138.646224,259.267221 L138.646224,280.416243 C138.646224,300.336624 154.856736,316.547135 174.777116,316.547135 L195.926138,316.547135 C218.618208,329.606654 244.838685,337.193359 272.84668,337.193359 C300.854674,337.193359 327.075151,329.606654 349.767221,316.547135 L370.916243,316.547135 C390.836624,316.547135 407.047135,300.336624 407.047135,280.416243 L407.047135,259.267221 C420.106654,236.575151 427.693359,210.354674 427.693359,182.34668 Z M310.097841,311.177655 L303.920607,269.795107 C330.063586,260.473181 350.78983,239.803014 360.193035,213.69847 L401.604566,219.880114 C388.773136,263.818867 354.075659,298.438844 310.097841,311.177655 Z M144.088793,219.880114 L185.500324,213.69847 C194.90353,239.803015 215.629772,260.473181 241.772751,269.795107 L235.595517,311.177655 C191.617701,298.438844 156.920224,263.818867 144.088793,219.880114 Z M235.52054,53.5352363 L241.698403,94.925345 C215.42941,104.317209 194.634489,125.168837 185.323904,151.475634 L143.962777,145.302182 C156.672605,101.158655 191.416707,66.3383149 235.52054,53.5352363 Z M401.730582,145.302182 L360.369457,151.475635 C351.058871,125.168838 330.26395,104.31721 303.994957,94.925346 L310.172821,53.5352373 C354.276653,66.3383149 389.020754,101.158655 401.730582,145.302182 Z M272.84668,254.608464 C233.000879,254.608464 200.584896,222.192481 200.584896,182.34668 C200.584896,142.500879 233.000879,110.084896 272.84668,110.084896 C312.692481,110.084896 345.108464,142.500879 345.108464,182.34668 C345.108464,222.192481 312.692481,254.608464 272.84668,254.608464 Z M370.916243,58.4693359 C385.145807,58.4693359 396.724023,70.0475525 396.724023,84.2771159 L396.724023,89.8330973 C387.812905,77.9329132 377.260446,67.3804547 365.360262,58.4693359 L370.916243,58.4693359 Z M148.969336,84.2771159 C148.969336,70.0475525 160.547553,58.4693359 174.777116,58.4693359 L180.333097,58.4693359 C168.432913,67.3804547 157.880455,77.9329132 148.969336,89.8330973 L148.969336,84.2771159 Z M174.777116,306.224023 C160.547553,306.224023 148.969336,294.645807 148.969336,280.416243 L148.969336,274.860262 C157.880455,286.760446 168.432913,297.312905 180.333097,306.224023 L174.777116,306.224023 Z M396.724023,280.416243 C396.724023,294.645807 385.145807,306.224023 370.916243,306.224023 L365.360262,306.224023 C377.260446,297.312905 387.812905,286.760446 396.724023,274.860262 L396.724023,280.416243 Z"/>
    <rect width="59" height="7" x="339" y="320" fill="#F1F7FF" fill-rule="nonzero" rx="1"/>
    <rect width="17" height="7" x="312" y="320" fill="#D9E7FB" fill-rule="nonzero" rx="1"/>
    <rect width="59" height="7" x="355" y="336" fill="#F1F7FF" fill-rule="nonzero" rx="1"/>
    <rect width="40" height="7" x="339" y="352" fill="#D9E7FB" fill-rule="nonzero" rx="1"/>
    <rect width="59" height="7" x="75" y="22" fill="#F1F7FF" fill-rule="nonzero" rx="1"/>
    <rect width="17" height="7" x="48" y="22" fill="#D9E7FB" fill-rule="nonzero" rx="1"/>
    <rect width="59" height="7" x="91" y="38" fill="#F1F7FF" fill-rule="nonzero" rx="1"/>
    <rect width="40" height="7" x="75" y="54" fill="#D9E7FB" fill-rule="nonzero" rx="1"/>
    <rect width="59" height="7" x="355" y="92" fill="#F1F7FF" fill-rule="nonzero" rx="1"/>
    <rect width="17" height="7" x="328" y="92" fill="#D9E7FB" fill-rule="nonzero" rx="1"/>
    <rect width="59" height="7" x="371" y="108" fill="#F1F7FF" fill-rule="nonzero" rx="1"/>
    <rect width="40" height="7" x="355" y="124" fill="#D9E7FB" fill-rule="nonzero" rx="1"/>
    <path fill="url(#email-support-b)" fill-opacity=".3" d="M94.1326643,81.2285569 L34.8344966,115.464101 C32.2663175,116.946545 30.1530738,120.984539 30.1530738,124.408529 L30.1530738,178.505205 C30.1530738,181.929382 32.2663175,183.526974 34.8344966,182.044282 L48.1047593,174.382669 C48.532758,174.135574 48.884986,174.401829 48.884986,174.972536 L48.884986,188.496612 C48.8851727,189.637776 49.5895665,190.170037 50.4454396,189.675848 C50.8583215,189.437525 51.2547802,188.990179 51.5471631,188.432723 L63.3474242,165.886085 C63.4945488,165.607389 63.6930581,165.383622 63.8998412,165.263372 L94.1326643,147.808551 C96.7006568,146.325859 98.8139005,142.288051 98.8139005,138.864062 L98.8139005,84.7676337 C98.8139005,81.3430217 96.7006568,79.7454915 94.1326643,81.2285569 Z"/>
    <path fill="url(#email-support-b)" d="M103.720431,85.4897864 L44.422263,119.725331 C41.8540839,121.207774 39.7408402,125.245768 39.7408402,128.669758 L39.7408402,182.766435 C39.7408402,186.190611 41.8540839,187.788204 44.422263,186.305511 L57.6925256,178.643899 C58.1205244,178.396804 58.4727524,178.663059 58.4727524,179.233765 L58.4727524,192.757841 C58.472939,193.899005 59.1773329,194.431267 60.033206,193.937077 C60.4460879,193.698754 60.8425466,193.251408 61.1349295,192.693953 L72.9351906,170.147315 C73.0823152,169.868618 73.2808245,169.644852 73.4876076,169.524602 L103.720431,152.06978 C106.288423,150.587088 108.401667,146.549281 108.401667,143.125291 L108.401667,89.0288632 C108.401667,85.6042512 106.288423,84.006721 103.720431,85.4897864 Z"/>
    <polygon fill="#FFF" points="88.22 140.898 88.22 145.368 54.995 164.551 54.995 160.081"/>
    <polygon fill="#CCE1FF" points="80.093 132.987 80.093 137.457 54.752 152.088 54.752 147.617"/>
    <polygon fill="#FFF" points="94.947 110.787 94.947 115.257 54.752 138.464 54.752 133.993"/>
    <circle cx="61.5" cy="209.5" r="4.5" fill="url(#email-support-c)" fill-rule="nonzero" transform="matrix(1 0 0 -1 0 419)"/>
    <circle cx="61.5" cy="209.5" r="2.382" fill="#120078" fill-rule="nonzero" transform="matrix(1 0 0 -1 0 419)"/>
    <polygon fill="url(#email-support-d)" fill-opacity=".06" fill-rule="nonzero" points="52 263.059 193 272.066 193 394.059 52 394.059"/>
    <path fill="url(#email-support-e)" fill-opacity=".1" d="M197.460163,297.868204 L124.787297,255.910891 C121.640104,254.093326 116.059326,254.325096 112.424958,256.423224 L55.0098032,289.572057 C51.3755119,291.670338 50.9748699,294.89217 54.1222917,296.709354 L70.3856101,306.098937 C70.9101422,306.401839 70.8433559,306.938799 70.237628,307.288512 L55.8838202,315.57574 C54.6727455,316.275167 54.5394778,317.348933 55.5883896,317.954584 C56.0943955,318.24666 56.8121202,318.393346 57.582908,318.362088 L88.7437788,317.070351 C89.1297826,317.055713 89.4888737,317.129285 89.7432108,317.275132 L126.7947,338.666744 C129.941893,340.483928 135.522671,340.252615 139.157039,338.154334 L196.571965,305.005501 C200.206333,302.907296 200.607356,299.685388 197.460163,297.868204 Z"/>
    <path fill="url(#email-support-e)" fill-opacity=".3" d="M197.460163,282.868204 L124.787297,240.910891 C121.640104,239.093326 116.059326,239.325096 112.424958,241.423224 L55.0098032,274.572057 C51.3755119,276.670338 50.9748699,279.89217 54.1222917,281.709354 L70.3856101,291.098937 C70.9101422,291.401839 70.8433559,291.938799 70.237628,292.288512 L55.8838202,300.57574 C54.6727455,301.275167 54.5394778,302.348933 55.5883896,302.954584 C56.0943955,303.24666 56.8121202,303.393346 57.582908,303.362088 L88.7437788,302.070351 C89.1297826,302.055713 89.4888737,302.129285 89.7432108,302.275132 L126.7947,323.666744 C129.941893,325.483928 135.522671,325.252615 139.157039,323.154334 L196.571965,290.005501 C200.206333,287.907296 200.607356,284.685388 197.460163,282.868204 Z"/>
    <path fill="url(#email-support-e)" d="M197.460163,268.182769 L124.787297,226.225455 C121.640104,224.40789 116.059326,224.63966 112.424958,226.737789 L55.0098032,259.886621 C51.3755119,261.984903 50.9748699,265.206735 54.1222917,267.023919 L70.3856101,276.413502 C70.9101422,276.716404 70.8433559,277.253363 70.237628,277.603077 L55.8838202,285.890304 C54.6727455,286.589731 54.5394778,287.663497 55.5883896,288.269149 C56.0943955,288.561225 56.8121202,288.707911 57.582908,288.676653 L88.7437788,287.384916 C89.1297826,287.370278 89.4888737,287.443849 89.7432108,287.589697 L126.7947,308.981308 C129.941893,310.798492 135.522671,310.56718 139.157039,308.468898 L196.571965,275.320066 C200.206333,273.221861 200.607356,269.999953 197.460163,268.182769 Z"/>
    <path fill="#107" d="M145.537482,253.51434 C134.654591,247.231028 115.35867,248.030888 102.792132,255.286178 C90.2256793,262.541467 88.8402956,273.682022 99.7231867,279.965248 C110.606078,286.248475 129.902,285.448614 142.468537,278.193325 C155.018102,270.934283 156.402377,259.802854 145.537482,253.51434 Z"/>
    <path fill="#FFF" d="M109.26786,274.454589 C107.907467,273.669228 108.080608,272.27668 109.651414,271.36978 C111.222306,270.462879 113.634254,270.362833 114.994647,271.148279 C116.354955,271.933639 116.181814,273.326273 114.611008,274.233173 C113.040201,275.140074 110.628168,275.240035 109.26786,274.454589 Z M123.519239,269.28083 C122.61447,269.108542 121.534429,269.281086 120.776788,269.7188 C119.729584,270.323428 118.12159,270.390126 117.21469,269.866524 C116.307789,269.342922 116.423273,268.414528 117.470478,267.809899 C119.743315,266.497354 122.982246,265.980405 125.695783,266.497098 C127.504466,266.841504 129.663526,266.497013 131.178722,265.622267 C133.273131,264.41301 133.504014,262.556307 131.690213,261.509103 C129.876412,260.461899 126.66034,260.595209 124.565931,261.804381 C124.565334,261.804722 124.564652,261.805148 124.56397,261.80549 C123.516765,262.410118 121.908772,262.476816 121.001871,261.953214 C120.094971,261.429612 120.210455,260.501218 121.257659,259.896589 C121.257659,259.896589 121.257745,259.896504 121.257745,259.896504 C125.446562,257.478074 131.878536,257.211454 135.506223,259.305863 C139.133825,261.400271 138.672059,265.113847 134.483241,267.532277 C131.452848,269.281853 127.134814,269.970835 123.517277,269.281939 L123.519239,269.28083 Z"/>
    <path fill="#B2C6E2" fill-rule="nonzero" d="M267.928612,55 C271.014351,55 272.835795,56.6285847 272.835795,59.564323 C272.835795,62.2000587 271.464355,63.9143584 269.964343,65.5215144 L267.328607,68.3286802 L272.92151,68.3286802 L272.92151,71.2644184 L263.021429,71.2644184 L263.021429,68.6715401 L267.43575,63.8072147 C268.97862,62.1357725 269.514339,61.3000514 269.514339,59.7143242 C269.514339,58.6000294 268.957191,57.9357382 267.992898,57.9357382 C266.792888,57.9357382 266.321456,58.7714593 266.300027,60.1857566 L263,59.9928979 C263.042857,56.8857297 264.821443,55 267.928612,55 Z M283.635883,65.5215144 L286.014473,65.5215144 L286.014473,68.4572526 L283.635883,68.4572526 L283.635883,71.2644184 L280.657287,71.2644184 L280.657287,68.4572526 L274.164377,68.4572526 L274.164377,65.7358019 L281.021576,55.2357162 L283.635883,55.2357162 L283.635883,65.5215144 Z M277.52869,65.5215144 L280.635858,65.5215144 L280.635858,60.7857615 L277.52869,65.5215144 Z M289.935934,72.7001444 L286.657336,72.7001444 L292.121666,55.2357162 L295.378836,55.2357162 L289.935934,72.7001444 Z M306.478926,57.8928807 L300.221732,71.2644184 L296.600274,71.2644184 L302.857468,58.1500257 L295.935983,58.1500257 L295.935983,55.2357162 L306.478926,55.2357162 L306.478926,57.8928807 Z"/>
    <circle cx="285" cy="88" r="8" fill="url(#email-support-c)" fill-rule="nonzero" transform="matrix(0 -1 -1 0 373 373)"/>
    <circle cx="285" cy="88" r="4" fill="#120078" fill-rule="nonzero" transform="matrix(0 -1 -1 0 373 373)"/>
    <polygon fill="url(#email-support-f)" fill-opacity=".06" fill-rule="nonzero" points="242 211.059 353 223.706 353 395 242 395"/>
    <path fill="url(#email-support-g)" fill-opacity=".1" d="M195.909417,161.728419 C200.609899,159.014843 207.729843,158.71954 211.800504,161.069484 L351.83815,241.920628 C355.908217,244.270572 355.397231,248.381637 350.697343,251.095213 L254.021065,306.911105 C249.320583,309.624682 242.200639,309.919865 238.129978,307.569862 L98.0923913,226.718778 C94.0220863,224.368834 94.5333105,220.257769 99.2333173,217.544787 L195.909417,161.728419 Z"/>
    <path fill="url(#email-support-g)" fill-opacity=".3" d="M195.909417,136.728419 C200.609899,134.014843 207.729843,133.71954 211.800504,136.069484 L351.83815,216.920628 C355.908217,219.270572 355.397231,223.381637 350.697343,226.095213 L254.021065,281.911105 C249.320583,284.624682 242.200639,284.919865 238.129978,282.569862 L98.0923913,201.718778 C94.0220863,199.368834 94.5333105,195.257769 99.2333173,192.544787 L195.909417,136.728419 Z"/>
    <path fill="url(#email-support-g)" d="M195.909417,113.728419 C200.609899,111.014843 207.729843,110.71954 211.800504,113.069484 L351.83815,193.920628 C355.908217,196.270572 355.397231,200.381637 350.697343,203.095213 L254.021065,258.911105 C249.320583,261.624682 242.200639,261.919865 238.129978,259.569862 L98.0923913,178.718778 C94.0220863,176.368834 94.5333105,172.257769 99.2333173,169.544787 L195.909417,113.728419 Z"/>
    <path fill="url(#email-support-h)" d="M94.5945101,172.222713 C92.5158049,173.422937 92.375343,175.290415 94.2811446,176.390818 L242.162612,261.770253 C244.068117,262.870598 247.303374,262.789493 249.381783,261.589328 L255.62889,257.982833 C257.707298,256.782668 235.835291,180.164395 235.835291,180.164395 C235.835291,180.164395 102.919907,167.415874 100.841142,168.616099 L94.5945101,172.222713 Z"/>
    <path fill="url(#email-support-i)" d="M200.088812,111.315493 C202.48213,109.933453 205.972881,109.705291 207.878386,110.805695 L355.759675,196.185011 C357.665774,197.284821 357.269462,199.300247 354.876143,200.682287 L347.683711,204.835003 C345.289798,206.216925 204.189776,198.435135 204.189776,198.435135 C204.189776,198.435135 190.502466,116.850191 192.895785,115.46815 L200.088812,111.315493 Z"/>
    <path fill="#FFF" d="M227.260615,181.840204 C218.228741,176.625676 219.363112,167.503637 229.792275,161.482352 C240.221385,155.461121 256.021226,154.806162 265.052992,160.020743 C274.085081,165.235271 272.950763,174.357364 262.5216,180.378595 C252.092383,186.39988 236.292542,187.054785 227.260615,181.840204 Z"/>
    <path stroke="#107" stroke-linecap="round" stroke-linejoin="round" stroke-width="4" d="M258.934772,171.961972 L238.824525,174.439415 C237.921316,174.549891 237.035195,174.433343 236.395603,174.119861 C235.756011,173.806433 235.425818,173.326914 235.490621,172.805482 L236.123496,167.716046"/>
    <polygon fill="url(#email-support-j)" fill-opacity=".06" fill-rule="nonzero" points="305 189.559 439 198.566 439 320.559 305 320.559"/>
    <path fill="url(#email-support-k)" fill-opacity=".1" d="M367.171485,198.026558 L437.558463,238.702226 C439.951203,240.084684 439.923751,242.341811 437.498068,243.743613 L385.887459,273.568451 C383.461666,274.970253 379.555866,274.98608 377.163565,273.603622 L306.776478,232.927954 C304.384287,231.545496 304.411519,229.288369 306.837312,227.886567 L358.447591,198.061729 C360.873384,196.659927 364.779294,196.64421 367.171485,198.026558 Z"/>
    <path fill="url(#email-support-k)" fill-opacity=".3" d="M367.171485,178.026558 L437.558463,218.702226 C439.951203,220.084684 439.923751,222.341811 437.498068,223.743613 L385.887459,253.568451 C383.461666,254.970253 379.555866,254.98608 377.163565,253.603622 L306.776478,212.927954 C304.384287,211.545496 304.411519,209.288369 306.837312,207.886567 L358.447591,178.061729 C360.873384,176.659927 364.779294,176.64421 367.171485,178.026558 Z"/>
    <path fill="url(#email-support-k)" d="M367.171485,158.026558 L437.558463,198.702226 C439.951203,200.084684 439.923751,202.341811 437.498068,203.743613 L385.887459,233.568451 C383.461666,234.970253 379.555866,234.98608 377.163565,233.603622 L306.776478,192.927954 C304.384287,191.545496 304.411519,189.288369 306.837312,187.886567 L358.447591,158.061729 C360.873384,156.659927 364.779294,156.64421 367.171485,158.026558 Z"/>
    <path fill="#FFF" d="M389.334748 180.817067C389.719481 180.596365 389.76116 180.261965 389.428366 180.070788L360.299603 163.346325C359.966681 163.155212 359.38426 163.179188 358.999847 163.39989L356.910235 164.599687C356.525823 164.820388 356.484015 165.154788 356.816937 165.345965L385.945252 182.070429C386.278046 182.261542 386.860916 182.237565 387.245008 182.016864L389.334748 180.817067zM369.683237 190.151188C370.067713 189.930487 370.109521 189.596087 369.776598 189.40491L349.232315 177.609212C348.899392 177.418035 348.317035 177.442075 347.932623 177.662777L345.843011 178.86251C345.458598 179.083275 345.416791 179.417675 345.749713 179.608788L366.293933 191.404551C366.626855 191.595664 367.209276 191.571687 367.593689 191.350986L369.683237 190.151188z"/>
    <path fill="#003FA3" d="M350.983811,189.723304 C351.368287,189.502603 351.410095,189.168203 351.077173,188.977026 L340.810577,183.082365 C340.477655,182.891188 339.895234,182.915229 339.510821,183.13593 L337.421209,184.335664 C337.036797,184.556429 336.994989,184.890829 337.327911,185.081942 L347.594507,190.976667 C347.927429,191.16778 348.50985,191.143803 348.894263,190.923101 L350.983811,189.723304 Z"/>
    <path fill="#FFF" d="M359.863573 205.130319C360.247985 204.909617 360.289792 204.575217 359.95687 204.384104L331.833478 188.236678C331.500556 188.045501 330.918134 188.069542 330.533722 188.290243L328.44411 189.489977C328.059698 189.710742 328.01789 190.045142 328.350812 190.236255L356.474205 206.383681C356.807127 206.574858 357.389548 206.550817 357.77396 206.330116L359.863573 205.130319zM378.220715 195.053107C378.605191 194.832342 378.646998 194.498006 378.314076 194.306829L375.626653 192.763832C375.293731 192.572655 374.71131 192.596696 374.326898 192.817397L372.237285 194.01713C371.852873 194.237896 371.811066 194.572232 372.143988 194.763409L374.831411 196.306406C375.164333 196.497583 375.746754 196.473606 376.131166 196.252841L378.220715 195.053107z"/>
    <path fill="#CCE1FF" d="M395.133954,194.455281 C395.518046,194.234516 395.559725,193.90018 395.226931,193.709003 L366.713676,177.337687 C366.380754,177.14651 365.798333,177.170551 365.413921,177.391252 L363.324308,178.591049 C362.939896,178.811751 362.898089,179.146151 363.231011,179.337264 L391.744458,195.70858 C392.077252,195.899757 392.659481,195.875716 393.044214,195.655014 L395.133954,194.455281 Z"/>
    <path fill="#003FA3" d="M411.069588,203.605049 C411.454321,203.384348 411.496,203.049948 411.163206,202.858771 L401.44229,197.277658 C401.109496,197.086545 400.527267,197.110522 400.142534,197.331223 L398.053435,198.53102 C397.668702,198.751722 397.627023,199.086122 397.959817,199.277299 L407.680092,204.858412 C408.012885,205.049525 408.595756,205.025548 408.979847,204.804783 L411.069588,203.605049 Z"/>
    <path fill="#CCE1FF" d="M401.236458,187.650649 C401.621191,187.429948 401.66287,187.095548 401.330076,186.904435 L395.2,183.384945 C394.867206,183.193832 394.284977,183.217809 393.900244,183.438574 L391.811145,184.638307 C391.426412,184.859009 391.384733,185.193409 391.717527,185.384586 L397.846962,188.904012 C398.180397,189.095188 398.762626,189.071148 399.146718,188.850446 L401.236458,187.650649 Z"/>
    <circle cx="385.5" cy="253.5" r="4.5" fill="url(#email-support-c)" fill-rule="nonzero" transform="matrix(1 0 0 -1 0 507)"/>
    <circle cx="385.5" cy="253.5" r="2.382" fill="#120078" fill-rule="nonzero" transform="matrix(1 0 0 -1 0 507)"/>
    <path stroke="url(#email-support-l)" stroke-linecap="round" stroke-linejoin="round" stroke-width="3" d="M182.147193,356.153589 L232.343768,356.153589 C242.286659,356.153589 250.346966,348.093282 250.346966,338.150391 L250.346966,338.150391 C250.346966,328.207499 258.407272,320.147193 268.350164,320.147193 L305.846411,320.147193" opacity=".7" transform="scale(1 -1) rotate(90 582.147 0)"/>
    <circle cx="261" cy="276" r="8" fill="url(#email-support-c)" fill-rule="nonzero" transform="matrix(0 -1 -1 0 537 537)"/>
    <circle cx="261" cy="276" r="4" fill="#120078" fill-rule="nonzero" transform="matrix(0 -1 -1 0 537 537)"/>
    <path stroke="url(#email-support-m)" stroke-linecap="round" stroke-width="3" d="M290.157614,100.632466 L279.576506,151.544549" transform="rotate(168.54 284.867 126.089)"/>
    <path fill="url(#email-support-n)" fill-rule="nonzero" d="M359.676758,291 C358.848331,291 358.176758,290.328427 358.176758,289.5 C358.176758,288.671573 358.848331,288 359.676758,288 L360.676758,288 C361.505185,288 362.176758,288.671573 362.176758,289.5 C362.176758,290.328427 361.505185,291 360.676758,291 L359.676758,291 Z M369.676758,291 C368.848331,291 368.176758,290.328427 368.176758,289.5 C368.176758,288.671573 368.848331,288 369.676758,288 L370.676758,288 C371.505185,288 372.176758,288.671573 372.176758,289.5 C372.176758,290.328427 371.505185,291 370.676758,291 L369.676758,291 Z M379.676758,291 C378.848331,291 378.176758,290.328427 378.176758,289.5 C378.176758,288.671573 378.848331,288 379.676758,288 L380.676758,288 C381.505185,288 382.176758,288.671573 382.176758,289.5 C382.176758,290.328427 381.505185,291 380.676758,291 L379.676758,291 Z M389.676758,291 C388.848331,291 388.176758,290.328427 388.176758,289.5 C388.176758,288.671573 388.848331,288 389.676758,288 L390.676758,288 C391.505185,288 392.176758,288.671573 392.176758,289.5 C392.176758,290.328427 391.505185,291 390.676758,291 L389.676758,291 Z M399.676758,291 C398.848331,291 398.176758,290.328427 398.176758,289.5 C398.176758,288.671573 398.848331,288 399.676758,288 L400.676758,288 C401.505185,288 402.176758,288.671573 402.176758,289.5 C402.176758,290.328427 401.505185,291 400.676758,291 L399.676758,291 Z M409.676758,291 C408.848331,291 408.176758,290.328427 408.176758,289.5 C408.176758,288.671573 408.848331,288 409.676758,288 L410.676758,288 C411.505185,288 412.176758,288.671573 412.176758,289.5 C412.176758,290.328427 411.505185,291 410.676758,291 L409.676758,291 Z" transform="rotate(-90 385.177 289.5)"/>
    <path fill="url(#email-support-o)" fill-rule="nonzero" d="M78.5,235 C79.3284271,235 80,235.671573 80,236.5 C80,237.328427 79.3284271,238 78.5,238 L77.5,238 C76.6715729,238 76,237.328427 76,236.5 C76,235.671573 76.6715729,235 77.5,235 L78.5,235 Z M67.5,235 C68.3284271,235 69,235.671573 69,236.5 C69,237.328427 68.3284271,238 67.5,238 L66.5,238 C65.6715729,238 65,237.328427 65,236.5 C65,235.671573 65.6715729,235 66.5,235 L67.5,235 Z M56.5,235 C57.3284271,235 58,235.671573 58,236.5 C58,237.328427 57.3284271,238 56.5,238 L55.5,238 C54.6715729,238 54,237.328427 54,236.5 C54,235.671573 54.6715729,235 55.5,235 L56.5,235 Z M45.5,235 C46.3284271,235 47,235.671573 47,236.5 C47,237.328427 46.3284271,238 45.5,238 C44.6715729,238 44,237.328427 44,236.5 C44,235.671573 44.6715729,235 45.5,235 Z" transform="rotate(-90 62 236.5)"/>
  </g>
</svg>